<mxfile host="app.diagrams.net" modified="2024-03-05T00:05:05.656Z" agent="Mozilla/5.0 (Windows NT 10.0; Win64; x64) AppleWebKit/537.36 (KHTML, like Gecko) Chrome/122.0.0.0 Safari/537.36" etag="UYG48eIWkQff3yNFqVfs" version="23.1.5" type="device">
  <diagram id="C5RBs43oDa-KdzZeNtuy" name="Page-1">
    <mxGraphModel dx="989" dy="570" grid="1" gridSize="10" guides="1" tooltips="1" connect="1" arrows="1" fold="1" page="1" pageScale="1" pageWidth="827" pageHeight="1169" math="0" shadow="0">
      <root>
        <mxCell id="WIyWlLk6GJQsqaUBKTNV-0" />
        <mxCell id="WIyWlLk6GJQsqaUBKTNV-1" parent="WIyWlLk6GJQsqaUBKTNV-0" />
        <mxCell id="OEn_OylxVQoGn8vpEVn8-64" value="Нет" style="edgeStyle=orthogonalEdgeStyle;rounded=0;orthogonalLoop=1;jettySize=auto;html=1;entryX=1;entryY=0.5;entryDx=0;entryDy=0;" edge="1" parent="WIyWlLk6GJQsqaUBKTNV-1" source="WIyWlLk6GJQsqaUBKTNV-6" target="OEn_OylxVQoGn8vpEVn8-62">
          <mxGeometry relative="1" as="geometry" />
        </mxCell>
        <mxCell id="OEn_OylxVQoGn8vpEVn8-67" value="Да" style="edgeStyle=orthogonalEdgeStyle;rounded=0;orthogonalLoop=1;jettySize=auto;html=1;entryX=0.5;entryY=0;entryDx=0;entryDy=0;" edge="1" parent="WIyWlLk6GJQsqaUBKTNV-1" source="WIyWlLk6GJQsqaUBKTNV-6" target="OEn_OylxVQoGn8vpEVn8-66">
          <mxGeometry relative="1" as="geometry" />
        </mxCell>
        <mxCell id="WIyWlLk6GJQsqaUBKTNV-6" value="Матрица&lt;br&gt;phi&#39;(...x) &amp;lt; 1?" style="rhombus;whiteSpace=wrap;html=1;shadow=0;fontFamily=Helvetica;fontSize=12;align=center;strokeWidth=1;spacing=6;spacingTop=-4;" parent="WIyWlLk6GJQsqaUBKTNV-1" vertex="1">
          <mxGeometry x="165" y="190" width="130" height="80" as="geometry" />
        </mxCell>
        <mxCell id="OEn_OylxVQoGn8vpEVn8-61" style="edgeStyle=orthogonalEdgeStyle;rounded=0;orthogonalLoop=1;jettySize=auto;html=1;entryX=0.5;entryY=0;entryDx=0;entryDy=0;" edge="1" parent="WIyWlLk6GJQsqaUBKTNV-1" source="OEn_OylxVQoGn8vpEVn8-0" target="OEn_OylxVQoGn8vpEVn8-57">
          <mxGeometry relative="1" as="geometry" />
        </mxCell>
        <mxCell id="OEn_OylxVQoGn8vpEVn8-0" value="Начало" style="ellipse;whiteSpace=wrap;html=1;" vertex="1" parent="WIyWlLk6GJQsqaUBKTNV-1">
          <mxGeometry x="170" y="30" width="120" height="50" as="geometry" />
        </mxCell>
        <mxCell id="OEn_OylxVQoGn8vpEVn8-63" style="edgeStyle=orthogonalEdgeStyle;rounded=0;orthogonalLoop=1;jettySize=auto;html=1;entryX=0.5;entryY=0;entryDx=0;entryDy=0;" edge="1" parent="WIyWlLk6GJQsqaUBKTNV-1" source="OEn_OylxVQoGn8vpEVn8-57" target="WIyWlLk6GJQsqaUBKTNV-6">
          <mxGeometry relative="1" as="geometry" />
        </mxCell>
        <mxCell id="OEn_OylxVQoGn8vpEVn8-57" value="Вывести функции phi(...x)" style="rounded=1;whiteSpace=wrap;html=1;fontSize=12;glass=0;strokeWidth=1;shadow=0;" vertex="1" parent="WIyWlLk6GJQsqaUBKTNV-1">
          <mxGeometry x="160" y="120" width="140" height="40" as="geometry" />
        </mxCell>
        <mxCell id="OEn_OylxVQoGn8vpEVn8-62" value="Конец" style="ellipse;whiteSpace=wrap;html=1;" vertex="1" parent="WIyWlLk6GJQsqaUBKTNV-1">
          <mxGeometry x="10" y="205" width="120" height="50" as="geometry" />
        </mxCell>
        <mxCell id="OEn_OylxVQoGn8vpEVn8-75" style="edgeStyle=orthogonalEdgeStyle;rounded=0;orthogonalLoop=1;jettySize=auto;html=1;entryX=0;entryY=0.5;entryDx=0;entryDy=0;" edge="1" parent="WIyWlLk6GJQsqaUBKTNV-1" source="OEn_OylxVQoGn8vpEVn8-65" target="OEn_OylxVQoGn8vpEVn8-70">
          <mxGeometry relative="1" as="geometry">
            <Array as="points">
              <mxPoint x="130" y="510" />
              <mxPoint x="130" y="410" />
            </Array>
          </mxGeometry>
        </mxCell>
        <mxCell id="OEn_OylxVQoGn8vpEVn8-65" value="...x = phi(...x)" style="rounded=1;whiteSpace=wrap;html=1;fontSize=12;glass=0;strokeWidth=1;shadow=0;" vertex="1" parent="WIyWlLk6GJQsqaUBKTNV-1">
          <mxGeometry x="160" y="490" width="140" height="40" as="geometry" />
        </mxCell>
        <mxCell id="OEn_OylxVQoGn8vpEVn8-71" style="edgeStyle=orthogonalEdgeStyle;rounded=0;orthogonalLoop=1;jettySize=auto;html=1;entryX=0.5;entryY=0;entryDx=0;entryDy=0;" edge="1" parent="WIyWlLk6GJQsqaUBKTNV-1" source="OEn_OylxVQoGn8vpEVn8-66" target="OEn_OylxVQoGn8vpEVn8-70">
          <mxGeometry relative="1" as="geometry" />
        </mxCell>
        <mxCell id="OEn_OylxVQoGn8vpEVn8-66" value="...x = начальное приближение" style="rounded=1;whiteSpace=wrap;html=1;fontSize=12;glass=0;strokeWidth=1;shadow=0;" vertex="1" parent="WIyWlLk6GJQsqaUBKTNV-1">
          <mxGeometry x="160" y="300" width="140" height="40" as="geometry" />
        </mxCell>
        <mxCell id="OEn_OylxVQoGn8vpEVn8-73" value="Да" style="edgeStyle=orthogonalEdgeStyle;rounded=0;orthogonalLoop=1;jettySize=auto;html=1;entryX=0;entryY=0.5;entryDx=0;entryDy=0;" edge="1" parent="WIyWlLk6GJQsqaUBKTNV-1" source="OEn_OylxVQoGn8vpEVn8-70" target="OEn_OylxVQoGn8vpEVn8-72">
          <mxGeometry relative="1" as="geometry" />
        </mxCell>
        <mxCell id="OEn_OylxVQoGn8vpEVn8-74" value="Нет" style="edgeStyle=orthogonalEdgeStyle;rounded=0;orthogonalLoop=1;jettySize=auto;html=1;entryX=0.5;entryY=0;entryDx=0;entryDy=0;" edge="1" parent="WIyWlLk6GJQsqaUBKTNV-1" source="OEn_OylxVQoGn8vpEVn8-70" target="OEn_OylxVQoGn8vpEVn8-65">
          <mxGeometry relative="1" as="geometry" />
        </mxCell>
        <mxCell id="OEn_OylxVQoGn8vpEVn8-70" value="Максимальная разница ...x и phi(...x) &amp;lt; погрешность?" style="rhombus;whiteSpace=wrap;html=1;shadow=0;fontFamily=Helvetica;fontSize=12;align=center;strokeWidth=1;spacing=6;spacingTop=-4;" vertex="1" parent="WIyWlLk6GJQsqaUBKTNV-1">
          <mxGeometry x="150" y="370" width="160" height="80" as="geometry" />
        </mxCell>
        <mxCell id="OEn_OylxVQoGn8vpEVn8-72" value="Результат" style="ellipse;whiteSpace=wrap;html=1;" vertex="1" parent="WIyWlLk6GJQsqaUBKTNV-1">
          <mxGeometry x="370" y="385" width="120" height="50" as="geometry" />
        </mxCell>
      </root>
    </mxGraphModel>
  </diagram>
</mxfile>
